<svg id="Layer_1" data-name="Layer 1" xmlns="http://www.w3.org/2000/svg" viewBox="0 0 1516.31 738.95"><defs><style>.cls-1{fill:#f06422;}.cls-2{fill:#76777a;}.cls-3{fill:#fabf4c;}.cls-4{fill:#bbbcbf;}.cls-5{fill:#757679;}.cls-6{fill:#56aee0;}</style></defs><title>eduqas</title><path class="cls-1" d="M1763.61,336.7c0,.11,0,.22,0,.33a109,109,0,0,1-3.15,13.34q-24.74,75.06-49.27,150.21c-.06.21-.13.41-.19.62-4.92,15.45-6.42,16.27-22.38,12.39-58.09-14.12-116.14-15.93-173.49,2.93-17.38,5.71-33.64,14.8-50.42,22.34-1.89.84-3.79,1.66-5.68,2.48a2.57,2.57,0,0,1-3.54-1.83,27.59,27.59,0,0,1-.85-6.63c1.47-39,8.31-76.83,27.52-111.44,26.76-48.22,69.11-75.56,121.32-89.08,50.23-13,101-12.54,151.9-4.65,2.71.42,8.25,1.54,8.24,7.46S1763.61,331,1763.61,336.7Z" transform="translate(-247.3 -183.2)"/><path class="cls-2" d="M249.6,695.57a5.38,5.38,0,0,1,.38-1.52c.69-1.72.87-5,1.18-6.39,5.34-22.91,14.71-43.77,32.31-59.88,59-54,150.09-26.08,169.54,52.14a178.17,178.17,0,0,1,4.37,31.31,23.3,23.3,0,0,1-23.47,25.17q-69,.06-138,0h-3.31a4.46,4.46,0,0,0-4.38,5.48v0c13.73,53.53,64.11,67.57,106.84,48.38,8.75-3.93,16.68-10.12,24.2-16.23,8.71-7.07,19.64-7.66,26.88-.14s7,18.85-1.19,26.82a117.83,117.83,0,0,1-64.76,32.58C340,839.71,304.6,830.43,276.89,799c-13.22-15-21.12-32.72-25.71-52.06-.32-1.34-.13-3.39-.68-4.84a4.79,4.79,0,0,1-.34-1.67C250.1,724.31,248.47,711.48,249.6,695.57Zm42.32,3.68H413.79a4.5,4.5,0,0,0,4.42-5.31c-5.27-29.23-24.86-57-64.38-56-34,.94-61.67,24.14-66.36,56.1A4.5,4.5,0,0,0,291.92,699.25Z" transform="translate(-247.3 -183.2)"/><path class="cls-2" d="M249.6,694.49A5.38,5.38,0,0,1,250,693c.69-1.72.87-5.05,1.18-6.39,5.34-22.91,14.71-43.77,32.31-59.88,59-54,150.09-26.08,169.54,52.14a178,178,0,0,1,4.37,31.31,23.3,23.3,0,0,1-23.47,25.17q-69,0-138,0h-3.31a4.47,4.47,0,0,0-4.38,5.48v.05c13.73,53.53,64.11,67.57,106.84,48.37,8.75-3.93,16.68-10.11,24.2-16.22,8.71-7.08,19.64-7.66,26.88-.14s7,18.84-1.19,26.81a117.7,117.7,0,0,1-64.76,32.58C340,838.63,304.6,829.35,276.89,798c-13.22-15-21.12-32.72-25.71-52.06-.32-1.33-.13-3.39-.68-4.83a4.79,4.79,0,0,1-.34-1.67C250.1,723.22,248.47,710.4,249.6,694.49Zm42.32,3.68H413.79a4.5,4.5,0,0,0,4.42-5.32c-5.27-29.23-24.86-57-64.38-55.94-34,.94-61.67,24.14-66.36,56.1A4.51,4.51,0,0,0,291.92,698.17Z" transform="translate(-247.3 -183.2)"/><path class="cls-2" d="M248,697.74c0-.52.63-7.25.7-7.77.47-3.22.87-5.05,1.18-6.39,5.34-22.91,14.71-43.77,32.31-59.88,59-54,150.09-26.08,169.54,52.14a178,178,0,0,1,4.37,31.31,23.3,23.3,0,0,1-23.47,25.17q-69,0-138,0h-3.31a4.47,4.47,0,0,0-4.38,5.48v.05c13.73,53.53,64.11,67.57,106.84,48.37,8.75-3.93,16.68-10.11,24.2-16.22,8.71-7.08,19.64-7.66,26.88-.14s7,18.84-1.19,26.81a117.7,117.7,0,0,1-64.76,32.58c-40.18,6.37-75.56-2.91-103.27-34.31-13.22-15-21.12-32.72-25.71-52.06a30,30,0,0,1-.87-4.83c0-.57-.08-1.1-.15-1.67C247,719.83,246.9,713.65,248,697.74Zm42.64-2.57H412.54a4.5,4.5,0,0,0,4.42-5.32c-5.27-29.23-24.86-57-64.38-55.94-34,.94-61.67,24.14-66.36,56.1A4.51,4.51,0,0,0,290.67,695.17Z" transform="translate(-247.3 -183.2)"/><path class="cls-3" d="M1730.92,183.2c3.91,0-4.28,24.4-7.84,36.42-.43,1.44-4.08,2.67-6.27,2.73-40.15,1.13-78.9,8.52-115.57,25.41s-67.51,40.78-92.47,72.4a12.9,12.9,0,0,1-2.5,3,14.18,14.18,0,0,1-2.84,1.32,1.56,1.56,0,0,1-2.07-1.19c-.21-1.2-.4-2.38.07-3.17,7.41-12.49,14.26-25.43,22.8-37.12,41.14-56.25,96.48-89,165.35-98.91.71-.1,1.43-.17,2.14-.21,11.66-.7,18.88-.66,20-.67h19.23" transform="translate(-247.3 -183.2)"/><path class="cls-4" d="M1446.89,541a3.08,3.08,0,0,1-4.31,3,16.37,16.37,0,0,1-2.37-1.19c-41.29-25.81-86.74-36.78-135-38a344.92,344.92,0,0,0-89.51,9.85A22,22,0,0,1,1189.69,500q-26.25-79.92-52.51-159.84c-1.69-5.15-1.58-9,4.87-10.08,58.18-9.34,116-9.87,172.6,9,72.92,24.26,114.22,76,127.48,150.68,3,16.81,3.28,34.1,4.76,51.17Z" transform="translate(-247.3 -183.2)"/><path class="cls-5" d="M663.89,617.81v-8.13c0-24.13-.07-48.25,0-72.38.05-12.56,6.71-20.55,17.33-21.29,11.25-.79,19.68,7.71,19.7,20.1q.07,53.48,0,106.94c0,43.68-.41,87.38.26,131.05.19,12.69-4.26,22.2-12.64,30.77-24.44,25-54.91,33.17-88.67,30.84-66.52-4.61-102.67-61.81-101.09-119.17,1.05-37.9,14.41-70.51,45.18-94.17,32.3-24.85,80.26-27.36,115.51-6.8C660.44,616.11,661.41,616.54,663.89,617.81Zm0,110.41c0-12.83.15-25.66,0-38.48-.31-20.89-14.16-41.16-33.92-47.34-24.88-7.78-48.74-4.45-68.23,13.54C539,676.89,532.79,704.11,536.83,734c7.51,55.6,67.59,83.83,114.57,54,8.45-5.36,12.83-12.44,12.57-22.64C663.65,753,663.89,740.61,663.89,728.22Z" transform="translate(-247.3 -183.2)"/><path class="cls-2" d="M1143.54,819.71c-13.3,8.51-26.59,13.95-41.31,15.54C1043.77,841.55,997.3,810,982.64,753c-10.58-41.13-4.13-79.59,22.85-113.07,23.7-29.4,55.77-40,92.7-37.52,29.67,2,55.14,12.84,74.47,36.29a32.88,32.88,0,0,1,7.76,22.1c-.21,79.33-.11,158.66-.16,238a40.4,40.4,0,0,1-.86,10.33A18.14,18.14,0,0,1,1159.92,922c-9.69-1.33-16.29-8.35-16.33-18-.13-25.65,0-51.29,0-76.94Zm0-109.52c0-12.83,0-25.65,0-38.48,0-7.85-2.89-14.33-9.25-19.21-24.75-19-68.3-18.17-91.84,2.27-20.54,17.83-28.06,41.34-27.25,67.75,1.07,34.84,21.72,78.1,75.32,76.66,30.36-.81,52.83-23.26,53-53.77C1143.6,733.67,1143.54,721.93,1143.54,710.19Z" transform="translate(-247.3 -183.2)"/><path class="cls-5" d="M1388.56,820.83c-42.45,22.6-83.61,21.72-121.54-7.27-33.31-25.46-45.22-61.93-43-102.79,2-36.45,16.21-67.42,46.38-89.5,41.56-30.42,107.68-24.66,143.25,12.06,8,8.29,12.36,17.28,12.21,29.55-.64,50.44-.27,100.89-.27,151.34,0,12.77-4.8,19.62-15.15,21.62-9.09,1.76-16.4-3.12-21.21-14.15A3.37,3.37,0,0,0,1388.56,820.83Zm.51-110.73h-.1c0-13.26,0-26.52,0-39.78a21.63,21.63,0,0,0-9.07-17.92c-24.58-18.5-77.41-22.56-103.33,14.73-15.7,22.58-19.53,47.62-13.09,74,7.27,29.74,24.2,50.59,55.77,56.83,40.18,7.95,69.82-16.3,69.83-57.21Z" transform="translate(-247.3 -183.2)"/><path class="cls-5" d="M1563.51,836.52c-35-.94-61.32-8.8-85.37-24-10.81-6.85-13.66-18-7.4-27.29,5.92-8.79,17.13-10.12,27.72-3.65,23.61,14.45,48.91,21.17,76.59,15.72a47.91,47.91,0,0,0,11.64-4.07c17.64-8.69,19.8-33.47,3-43.7-9.44-5.75-20.77-8.45-31.33-12.29-16.08-5.85-33-9.94-48.2-17.54-31.91-16-44.27-51.18-29.75-81,10.15-20.81,28.82-30,50.24-34.48,31.33-6.59,60.34,1.06,88,15.56,9.73,5.1,12.77,15.85,7.84,25.06-4.72,8.82-15.15,12.27-24.69,7.59-14.15-6.95-28.63-13.13-44.58-13.24a109.69,109.69,0,0,0-27.59,3.4c-9.55,2.43-16.72,8.72-17.69,19.44s3.55,19.31,13,23.58c13,5.87,26.68,10.18,40.07,15.14,13.8,5.1,28.36,8.75,41.22,15.6,23.45,12.48,33.08,33.67,31.21,59.83-1.94,27.12-17.27,44.62-42.14,53.32C1583.14,833.73,1570,835.14,1563.51,836.52Z" transform="translate(-247.3 -183.2)"/><path class="cls-2" d="M934.77,686.1c0,20.22.36,40.45-.07,60.65-1,49-42.33,89.07-91.65,89.45-49.85.38-92.33-39-93.43-88.15-1-42.37-.39-84.78-.3-127.18,0-11.21,8.5-19.45,18.83-19.1S786,610.15,786,621.17c0,40.66-.11,81.32.08,122a56,56,0,0,0,96.73,38.41c10.86-11.48,15.46-25.38,15.44-41q-.06-60,0-120c0-9.86,6.21-16.91,15.84-18.5a18.1,18.1,0,0,1,19.55,11.88,33.77,33.77,0,0,1,1.28,10.25c.11,20.65.05,41.31.05,62Z" transform="translate(-247.3 -183.2)"/><path class="cls-6" d="M1718.29,242.39h.15c29.87,1.44,19,1,28.52,1.33,6.12.22,7.52,3.54,5.85,8.69-5.44,16.7-11.19,33.3-16.43,50.06-1.57,5-4.72,4-8.17,3.61-39.38-4-78.48-3-117.06,6.79-51.16,13-93.81,39-125.09,82.3a7,7,0,0,1-2.83,2,1.61,1.61,0,0,1-2.29-1.3,10.22,10.22,0,0,1,.25-4.61c21.1-53.85,57.21-94.09,109.31-119.58C1630.79,251.93,1673.77,244,1718.29,242.39Z" transform="translate(-247.3 -183.2)"/></svg>